<?xml version="1.0" encoding="utf-8" standalone="no"?>
<!DOCTYPE svg PUBLIC "-//W3C//DTD SVG 1.1//EN"
  "http://www.w3.org/Graphics/SVG/1.1/DTD/svg11.dtd">
<!-- Created with matplotlib (https://matplotlib.org/) -->
<svg height="345.6pt" version="1.1" viewBox="0 0 460.8 345.6" width="460.8pt" xmlns="http://www.w3.org/2000/svg" xmlns:xlink="http://www.w3.org/1999/xlink">
 <defs>
  <style type="text/css">
*{stroke-linecap:butt;stroke-linejoin:round;}
  </style>
 </defs>
 <g id="figure_1">
  <g id="patch_1">
   <path d="M 0 345.6 
L 460.8 345.6 
L 460.8 0 
L 0 0 
z
" style="fill:#ffffff;"/>
  </g>
  <g id="axes_1">
   <g id="patch_2">
    <path d="M 57.6 307.584 
L 414.72 307.584 
L 414.72 41.472 
L 57.6 41.472 
z
" style="fill:#ffffff;"/>
   </g>
   <g id="matplotlib.axis_1">
    <g id="xtick_1">
     <g id="line2d_1">
      <path clip-path="url(#p5378240b9e)" d="M 73.832727 307.584 
L 73.832727 41.472 
" style="fill:none;stroke:#b0b0b0;stroke-linecap:square;stroke-width:0.8;"/>
     </g>
     <g id="line2d_2">
      <defs>
       <path d="M 0 0 
L 0 3.5 
" id="m9da17ca013" style="stroke:#000000;stroke-width:0.8;"/>
      </defs>
      <g>
       <use style="stroke:#000000;stroke-width:0.8;" x="73.832727" xlink:href="#m9da17ca013" y="307.584"/>
      </g>
     </g>
     <g id="text_1">
      <!-- 0 -->
      <defs>
       <path d="M 31.78125 66.40625 
Q 24.171875 66.40625 20.328125 58.90625 
Q 16.5 51.421875 16.5 36.375 
Q 16.5 21.390625 20.328125 13.890625 
Q 24.171875 6.390625 31.78125 6.390625 
Q 39.453125 6.390625 43.28125 13.890625 
Q 47.125 21.390625 47.125 36.375 
Q 47.125 51.421875 43.28125 58.90625 
Q 39.453125 66.40625 31.78125 66.40625 
z
M 31.78125 74.21875 
Q 44.046875 74.21875 50.515625 64.515625 
Q 56.984375 54.828125 56.984375 36.375 
Q 56.984375 17.96875 50.515625 8.265625 
Q 44.046875 -1.421875 31.78125 -1.421875 
Q 19.53125 -1.421875 13.0625 8.265625 
Q 6.59375 17.96875 6.59375 36.375 
Q 6.59375 54.828125 13.0625 64.515625 
Q 19.53125 74.21875 31.78125 74.21875 
z
" id="DejaVuSans-48"/>
      </defs>
      <g transform="translate(70.651477 322.182437)scale(0.1 -0.1)">
       <use xlink:href="#DejaVuSans-48"/>
      </g>
     </g>
    </g>
    <g id="xtick_2">
     <g id="line2d_3">
      <path clip-path="url(#p5378240b9e)" d="M 115.995655 307.584 
L 115.995655 41.472 
" style="fill:none;stroke:#b0b0b0;stroke-linecap:square;stroke-width:0.8;"/>
     </g>
     <g id="line2d_4">
      <g>
       <use style="stroke:#000000;stroke-width:0.8;" x="115.995655" xlink:href="#m9da17ca013" y="307.584"/>
      </g>
     </g>
     <g id="text_2">
      <!-- 10 -->
      <defs>
       <path d="M 12.40625 8.296875 
L 28.515625 8.296875 
L 28.515625 63.921875 
L 10.984375 60.40625 
L 10.984375 69.390625 
L 28.421875 72.90625 
L 38.28125 72.90625 
L 38.28125 8.296875 
L 54.390625 8.296875 
L 54.390625 0 
L 12.40625 0 
z
" id="DejaVuSans-49"/>
      </defs>
      <g transform="translate(109.633155 322.182437)scale(0.1 -0.1)">
       <use xlink:href="#DejaVuSans-49"/>
       <use x="63.623047" xlink:href="#DejaVuSans-48"/>
      </g>
     </g>
    </g>
    <g id="xtick_3">
     <g id="line2d_5">
      <path clip-path="url(#p5378240b9e)" d="M 158.158583 307.584 
L 158.158583 41.472 
" style="fill:none;stroke:#b0b0b0;stroke-linecap:square;stroke-width:0.8;"/>
     </g>
     <g id="line2d_6">
      <g>
       <use style="stroke:#000000;stroke-width:0.8;" x="158.158583" xlink:href="#m9da17ca013" y="307.584"/>
      </g>
     </g>
     <g id="text_3">
      <!-- 20 -->
      <defs>
       <path d="M 19.1875 8.296875 
L 53.609375 8.296875 
L 53.609375 0 
L 7.328125 0 
L 7.328125 8.296875 
Q 12.9375 14.109375 22.625 23.890625 
Q 32.328125 33.6875 34.8125 36.53125 
Q 39.546875 41.84375 41.421875 45.53125 
Q 43.3125 49.21875 43.3125 52.78125 
Q 43.3125 58.59375 39.234375 62.25 
Q 35.15625 65.921875 28.609375 65.921875 
Q 23.96875 65.921875 18.8125 64.3125 
Q 13.671875 62.703125 7.8125 59.421875 
L 7.8125 69.390625 
Q 13.765625 71.78125 18.9375 73 
Q 24.125 74.21875 28.421875 74.21875 
Q 39.75 74.21875 46.484375 68.546875 
Q 53.21875 62.890625 53.21875 53.421875 
Q 53.21875 48.921875 51.53125 44.890625 
Q 49.859375 40.875 45.40625 35.40625 
Q 44.1875 33.984375 37.640625 27.21875 
Q 31.109375 20.453125 19.1875 8.296875 
z
" id="DejaVuSans-50"/>
      </defs>
      <g transform="translate(151.796083 322.182437)scale(0.1 -0.1)">
       <use xlink:href="#DejaVuSans-50"/>
       <use x="63.623047" xlink:href="#DejaVuSans-48"/>
      </g>
     </g>
    </g>
    <g id="xtick_4">
     <g id="line2d_7">
      <path clip-path="url(#p5378240b9e)" d="M 200.321511 307.584 
L 200.321511 41.472 
" style="fill:none;stroke:#b0b0b0;stroke-linecap:square;stroke-width:0.8;"/>
     </g>
     <g id="line2d_8">
      <g>
       <use style="stroke:#000000;stroke-width:0.8;" x="200.321511" xlink:href="#m9da17ca013" y="307.584"/>
      </g>
     </g>
     <g id="text_4">
      <!-- 30 -->
      <defs>
       <path d="M 40.578125 39.3125 
Q 47.65625 37.796875 51.625 33 
Q 55.609375 28.21875 55.609375 21.1875 
Q 55.609375 10.40625 48.1875 4.484375 
Q 40.765625 -1.421875 27.09375 -1.421875 
Q 22.515625 -1.421875 17.65625 -0.515625 
Q 12.796875 0.390625 7.625 2.203125 
L 7.625 11.71875 
Q 11.71875 9.328125 16.59375 8.109375 
Q 21.484375 6.890625 26.8125 6.890625 
Q 36.078125 6.890625 40.9375 10.546875 
Q 45.796875 14.203125 45.796875 21.1875 
Q 45.796875 27.640625 41.28125 31.265625 
Q 36.765625 34.90625 28.71875 34.90625 
L 20.21875 34.90625 
L 20.21875 43.015625 
L 29.109375 43.015625 
Q 36.375 43.015625 40.234375 45.921875 
Q 44.09375 48.828125 44.09375 54.296875 
Q 44.09375 59.90625 40.109375 62.90625 
Q 36.140625 65.921875 28.71875 65.921875 
Q 24.65625 65.921875 20.015625 65.03125 
Q 15.375 64.15625 9.8125 62.3125 
L 9.8125 71.09375 
Q 15.4375 72.65625 20.34375 73.4375 
Q 25.25 74.21875 29.59375 74.21875 
Q 40.828125 74.21875 47.359375 69.109375 
Q 53.90625 64.015625 53.90625 55.328125 
Q 53.90625 49.265625 50.4375 45.09375 
Q 46.96875 40.921875 40.578125 39.3125 
z
" id="DejaVuSans-51"/>
      </defs>
      <g transform="translate(193.959011 322.182437)scale(0.1 -0.1)">
       <use xlink:href="#DejaVuSans-51"/>
       <use x="63.623047" xlink:href="#DejaVuSans-48"/>
      </g>
     </g>
    </g>
    <g id="xtick_5">
     <g id="line2d_9">
      <path clip-path="url(#p5378240b9e)" d="M 242.484439 307.584 
L 242.484439 41.472 
" style="fill:none;stroke:#b0b0b0;stroke-linecap:square;stroke-width:0.8;"/>
     </g>
     <g id="line2d_10">
      <g>
       <use style="stroke:#000000;stroke-width:0.8;" x="242.484439" xlink:href="#m9da17ca013" y="307.584"/>
      </g>
     </g>
     <g id="text_5">
      <!-- 40 -->
      <defs>
       <path d="M 37.796875 64.3125 
L 12.890625 25.390625 
L 37.796875 25.390625 
z
M 35.203125 72.90625 
L 47.609375 72.90625 
L 47.609375 25.390625 
L 58.015625 25.390625 
L 58.015625 17.1875 
L 47.609375 17.1875 
L 47.609375 0 
L 37.796875 0 
L 37.796875 17.1875 
L 4.890625 17.1875 
L 4.890625 26.703125 
z
" id="DejaVuSans-52"/>
      </defs>
      <g transform="translate(236.121939 322.182437)scale(0.1 -0.1)">
       <use xlink:href="#DejaVuSans-52"/>
       <use x="63.623047" xlink:href="#DejaVuSans-48"/>
      </g>
     </g>
    </g>
    <g id="xtick_6">
     <g id="line2d_11">
      <path clip-path="url(#p5378240b9e)" d="M 284.647367 307.584 
L 284.647367 41.472 
" style="fill:none;stroke:#b0b0b0;stroke-linecap:square;stroke-width:0.8;"/>
     </g>
     <g id="line2d_12">
      <g>
       <use style="stroke:#000000;stroke-width:0.8;" x="284.647367" xlink:href="#m9da17ca013" y="307.584"/>
      </g>
     </g>
     <g id="text_6">
      <!-- 50 -->
      <defs>
       <path d="M 10.796875 72.90625 
L 49.515625 72.90625 
L 49.515625 64.59375 
L 19.828125 64.59375 
L 19.828125 46.734375 
Q 21.96875 47.46875 24.109375 47.828125 
Q 26.265625 48.1875 28.421875 48.1875 
Q 40.625 48.1875 47.75 41.5 
Q 54.890625 34.8125 54.890625 23.390625 
Q 54.890625 11.625 47.5625 5.09375 
Q 40.234375 -1.421875 26.90625 -1.421875 
Q 22.3125 -1.421875 17.546875 -0.640625 
Q 12.796875 0.140625 7.71875 1.703125 
L 7.71875 11.625 
Q 12.109375 9.234375 16.796875 8.0625 
Q 21.484375 6.890625 26.703125 6.890625 
Q 35.15625 6.890625 40.078125 11.328125 
Q 45.015625 15.765625 45.015625 23.390625 
Q 45.015625 31 40.078125 35.4375 
Q 35.15625 39.890625 26.703125 39.890625 
Q 22.75 39.890625 18.8125 39.015625 
Q 14.890625 38.140625 10.796875 36.28125 
z
" id="DejaVuSans-53"/>
      </defs>
      <g transform="translate(278.284867 322.182437)scale(0.1 -0.1)">
       <use xlink:href="#DejaVuSans-53"/>
       <use x="63.623047" xlink:href="#DejaVuSans-48"/>
      </g>
     </g>
    </g>
    <g id="xtick_7">
     <g id="line2d_13">
      <path clip-path="url(#p5378240b9e)" d="M 326.810295 307.584 
L 326.810295 41.472 
" style="fill:none;stroke:#b0b0b0;stroke-linecap:square;stroke-width:0.8;"/>
     </g>
     <g id="line2d_14">
      <g>
       <use style="stroke:#000000;stroke-width:0.8;" x="326.810295" xlink:href="#m9da17ca013" y="307.584"/>
      </g>
     </g>
     <g id="text_7">
      <!-- 60 -->
      <defs>
       <path d="M 33.015625 40.375 
Q 26.375 40.375 22.484375 35.828125 
Q 18.609375 31.296875 18.609375 23.390625 
Q 18.609375 15.53125 22.484375 10.953125 
Q 26.375 6.390625 33.015625 6.390625 
Q 39.65625 6.390625 43.53125 10.953125 
Q 47.40625 15.53125 47.40625 23.390625 
Q 47.40625 31.296875 43.53125 35.828125 
Q 39.65625 40.375 33.015625 40.375 
z
M 52.59375 71.296875 
L 52.59375 62.3125 
Q 48.875 64.0625 45.09375 64.984375 
Q 41.3125 65.921875 37.59375 65.921875 
Q 27.828125 65.921875 22.671875 59.328125 
Q 17.53125 52.734375 16.796875 39.40625 
Q 19.671875 43.65625 24.015625 45.921875 
Q 28.375 48.1875 33.59375 48.1875 
Q 44.578125 48.1875 50.953125 41.515625 
Q 57.328125 34.859375 57.328125 23.390625 
Q 57.328125 12.15625 50.6875 5.359375 
Q 44.046875 -1.421875 33.015625 -1.421875 
Q 20.359375 -1.421875 13.671875 8.265625 
Q 6.984375 17.96875 6.984375 36.375 
Q 6.984375 53.65625 15.1875 63.9375 
Q 23.390625 74.21875 37.203125 74.21875 
Q 40.921875 74.21875 44.703125 73.484375 
Q 48.484375 72.75 52.59375 71.296875 
z
" id="DejaVuSans-54"/>
      </defs>
      <g transform="translate(320.447795 322.182437)scale(0.1 -0.1)">
       <use xlink:href="#DejaVuSans-54"/>
       <use x="63.623047" xlink:href="#DejaVuSans-48"/>
      </g>
     </g>
    </g>
    <g id="xtick_8">
     <g id="line2d_15">
      <path clip-path="url(#p5378240b9e)" d="M 368.973223 307.584 
L 368.973223 41.472 
" style="fill:none;stroke:#b0b0b0;stroke-linecap:square;stroke-width:0.8;"/>
     </g>
     <g id="line2d_16">
      <g>
       <use style="stroke:#000000;stroke-width:0.8;" x="368.973223" xlink:href="#m9da17ca013" y="307.584"/>
      </g>
     </g>
     <g id="text_8">
      <!-- 70 -->
      <defs>
       <path d="M 8.203125 72.90625 
L 55.078125 72.90625 
L 55.078125 68.703125 
L 28.609375 0 
L 18.3125 0 
L 43.21875 64.59375 
L 8.203125 64.59375 
z
" id="DejaVuSans-55"/>
      </defs>
      <g transform="translate(362.610723 322.182437)scale(0.1 -0.1)">
       <use xlink:href="#DejaVuSans-55"/>
       <use x="63.623047" xlink:href="#DejaVuSans-48"/>
      </g>
     </g>
    </g>
    <g id="xtick_9">
     <g id="line2d_17">
      <path clip-path="url(#p5378240b9e)" d="M 411.136151 307.584 
L 411.136151 41.472 
" style="fill:none;stroke:#b0b0b0;stroke-linecap:square;stroke-width:0.8;"/>
     </g>
     <g id="line2d_18">
      <g>
       <use style="stroke:#000000;stroke-width:0.8;" x="411.136151" xlink:href="#m9da17ca013" y="307.584"/>
      </g>
     </g>
     <g id="text_9">
      <!-- 80 -->
      <defs>
       <path d="M 31.78125 34.625 
Q 24.75 34.625 20.71875 30.859375 
Q 16.703125 27.09375 16.703125 20.515625 
Q 16.703125 13.921875 20.71875 10.15625 
Q 24.75 6.390625 31.78125 6.390625 
Q 38.8125 6.390625 42.859375 10.171875 
Q 46.921875 13.96875 46.921875 20.515625 
Q 46.921875 27.09375 42.890625 30.859375 
Q 38.875 34.625 31.78125 34.625 
z
M 21.921875 38.8125 
Q 15.578125 40.375 12.03125 44.71875 
Q 8.5 49.078125 8.5 55.328125 
Q 8.5 64.0625 14.71875 69.140625 
Q 20.953125 74.21875 31.78125 74.21875 
Q 42.671875 74.21875 48.875 69.140625 
Q 55.078125 64.0625 55.078125 55.328125 
Q 55.078125 49.078125 51.53125 44.71875 
Q 48 40.375 41.703125 38.8125 
Q 48.828125 37.15625 52.796875 32.3125 
Q 56.78125 27.484375 56.78125 20.515625 
Q 56.78125 9.90625 50.3125 4.234375 
Q 43.84375 -1.421875 31.78125 -1.421875 
Q 19.734375 -1.421875 13.25 4.234375 
Q 6.78125 9.90625 6.78125 20.515625 
Q 6.78125 27.484375 10.78125 32.3125 
Q 14.796875 37.15625 21.921875 38.8125 
z
M 18.3125 54.390625 
Q 18.3125 48.734375 21.84375 45.5625 
Q 25.390625 42.390625 31.78125 42.390625 
Q 38.140625 42.390625 41.71875 45.5625 
Q 45.3125 48.734375 45.3125 54.390625 
Q 45.3125 60.0625 41.71875 63.234375 
Q 38.140625 66.40625 31.78125 66.40625 
Q 25.390625 66.40625 21.84375 63.234375 
Q 18.3125 60.0625 18.3125 54.390625 
z
" id="DejaVuSans-56"/>
      </defs>
      <g transform="translate(404.773651 322.182437)scale(0.1 -0.1)">
       <use xlink:href="#DejaVuSans-56"/>
       <use x="63.623047" xlink:href="#DejaVuSans-48"/>
      </g>
     </g>
    </g>
    <g id="text_10">
     <!-- Generations -->
     <defs>
      <path d="M 59.515625 10.40625 
L 59.515625 29.984375 
L 43.40625 29.984375 
L 43.40625 38.09375 
L 69.28125 38.09375 
L 69.28125 6.78125 
Q 63.578125 2.734375 56.6875 0.65625 
Q 49.8125 -1.421875 42 -1.421875 
Q 24.90625 -1.421875 15.25 8.5625 
Q 5.609375 18.5625 5.609375 36.375 
Q 5.609375 54.25 15.25 64.234375 
Q 24.90625 74.21875 42 74.21875 
Q 49.125 74.21875 55.546875 72.453125 
Q 61.96875 70.703125 67.390625 67.28125 
L 67.390625 56.78125 
Q 61.921875 61.421875 55.765625 63.765625 
Q 49.609375 66.109375 42.828125 66.109375 
Q 29.4375 66.109375 22.71875 58.640625 
Q 16.015625 51.171875 16.015625 36.375 
Q 16.015625 21.625 22.71875 14.15625 
Q 29.4375 6.6875 42.828125 6.6875 
Q 48.046875 6.6875 52.140625 7.59375 
Q 56.25 8.5 59.515625 10.40625 
z
" id="DejaVuSans-71"/>
      <path d="M 56.203125 29.59375 
L 56.203125 25.203125 
L 14.890625 25.203125 
Q 15.484375 15.921875 20.484375 11.0625 
Q 25.484375 6.203125 34.421875 6.203125 
Q 39.59375 6.203125 44.453125 7.46875 
Q 49.3125 8.734375 54.109375 11.28125 
L 54.109375 2.78125 
Q 49.265625 0.734375 44.1875 -0.34375 
Q 39.109375 -1.421875 33.890625 -1.421875 
Q 20.796875 -1.421875 13.15625 6.1875 
Q 5.515625 13.8125 5.515625 26.8125 
Q 5.515625 40.234375 12.765625 48.109375 
Q 20.015625 56 32.328125 56 
Q 43.359375 56 49.78125 48.890625 
Q 56.203125 41.796875 56.203125 29.59375 
z
M 47.21875 32.234375 
Q 47.125 39.59375 43.09375 43.984375 
Q 39.0625 48.390625 32.421875 48.390625 
Q 24.90625 48.390625 20.390625 44.140625 
Q 15.875 39.890625 15.1875 32.171875 
z
" id="DejaVuSans-101"/>
      <path d="M 54.890625 33.015625 
L 54.890625 0 
L 45.90625 0 
L 45.90625 32.71875 
Q 45.90625 40.484375 42.875 44.328125 
Q 39.84375 48.1875 33.796875 48.1875 
Q 26.515625 48.1875 22.3125 43.546875 
Q 18.109375 38.921875 18.109375 30.90625 
L 18.109375 0 
L 9.078125 0 
L 9.078125 54.6875 
L 18.109375 54.6875 
L 18.109375 46.1875 
Q 21.34375 51.125 25.703125 53.5625 
Q 30.078125 56 35.796875 56 
Q 45.21875 56 50.046875 50.171875 
Q 54.890625 44.34375 54.890625 33.015625 
z
" id="DejaVuSans-110"/>
      <path d="M 41.109375 46.296875 
Q 39.59375 47.171875 37.8125 47.578125 
Q 36.03125 48 33.890625 48 
Q 26.265625 48 22.1875 43.046875 
Q 18.109375 38.09375 18.109375 28.8125 
L 18.109375 0 
L 9.078125 0 
L 9.078125 54.6875 
L 18.109375 54.6875 
L 18.109375 46.1875 
Q 20.953125 51.171875 25.484375 53.578125 
Q 30.03125 56 36.53125 56 
Q 37.453125 56 38.578125 55.875 
Q 39.703125 55.765625 41.0625 55.515625 
z
" id="DejaVuSans-114"/>
      <path d="M 34.28125 27.484375 
Q 23.390625 27.484375 19.1875 25 
Q 14.984375 22.515625 14.984375 16.5 
Q 14.984375 11.71875 18.140625 8.90625 
Q 21.296875 6.109375 26.703125 6.109375 
Q 34.1875 6.109375 38.703125 11.40625 
Q 43.21875 16.703125 43.21875 25.484375 
L 43.21875 27.484375 
z
M 52.203125 31.203125 
L 52.203125 0 
L 43.21875 0 
L 43.21875 8.296875 
Q 40.140625 3.328125 35.546875 0.953125 
Q 30.953125 -1.421875 24.3125 -1.421875 
Q 15.921875 -1.421875 10.953125 3.296875 
Q 6 8.015625 6 15.921875 
Q 6 25.140625 12.171875 29.828125 
Q 18.359375 34.515625 30.609375 34.515625 
L 43.21875 34.515625 
L 43.21875 35.40625 
Q 43.21875 41.609375 39.140625 45 
Q 35.0625 48.390625 27.6875 48.390625 
Q 23 48.390625 18.546875 47.265625 
Q 14.109375 46.140625 10.015625 43.890625 
L 10.015625 52.203125 
Q 14.9375 54.109375 19.578125 55.046875 
Q 24.21875 56 28.609375 56 
Q 40.484375 56 46.34375 49.84375 
Q 52.203125 43.703125 52.203125 31.203125 
z
" id="DejaVuSans-97"/>
      <path d="M 18.3125 70.21875 
L 18.3125 54.6875 
L 36.8125 54.6875 
L 36.8125 47.703125 
L 18.3125 47.703125 
L 18.3125 18.015625 
Q 18.3125 11.328125 20.140625 9.421875 
Q 21.96875 7.515625 27.59375 7.515625 
L 36.8125 7.515625 
L 36.8125 0 
L 27.59375 0 
Q 17.1875 0 13.234375 3.875 
Q 9.28125 7.765625 9.28125 18.015625 
L 9.28125 47.703125 
L 2.6875 47.703125 
L 2.6875 54.6875 
L 9.28125 54.6875 
L 9.28125 70.21875 
z
" id="DejaVuSans-116"/>
      <path d="M 9.421875 54.6875 
L 18.40625 54.6875 
L 18.40625 0 
L 9.421875 0 
z
M 9.421875 75.984375 
L 18.40625 75.984375 
L 18.40625 64.59375 
L 9.421875 64.59375 
z
" id="DejaVuSans-105"/>
      <path d="M 30.609375 48.390625 
Q 23.390625 48.390625 19.1875 42.75 
Q 14.984375 37.109375 14.984375 27.296875 
Q 14.984375 17.484375 19.15625 11.84375 
Q 23.34375 6.203125 30.609375 6.203125 
Q 37.796875 6.203125 41.984375 11.859375 
Q 46.1875 17.53125 46.1875 27.296875 
Q 46.1875 37.015625 41.984375 42.703125 
Q 37.796875 48.390625 30.609375 48.390625 
z
M 30.609375 56 
Q 42.328125 56 49.015625 48.375 
Q 55.71875 40.765625 55.71875 27.296875 
Q 55.71875 13.875 49.015625 6.21875 
Q 42.328125 -1.421875 30.609375 -1.421875 
Q 18.84375 -1.421875 12.171875 6.21875 
Q 5.515625 13.875 5.515625 27.296875 
Q 5.515625 40.765625 12.171875 48.375 
Q 18.84375 56 30.609375 56 
z
" id="DejaVuSans-111"/>
      <path d="M 44.28125 53.078125 
L 44.28125 44.578125 
Q 40.484375 46.53125 36.375 47.5 
Q 32.28125 48.484375 27.875 48.484375 
Q 21.1875 48.484375 17.84375 46.4375 
Q 14.5 44.390625 14.5 40.28125 
Q 14.5 37.15625 16.890625 35.375 
Q 19.28125 33.59375 26.515625 31.984375 
L 29.59375 31.296875 
Q 39.15625 29.25 43.1875 25.515625 
Q 47.21875 21.78125 47.21875 15.09375 
Q 47.21875 7.46875 41.1875 3.015625 
Q 35.15625 -1.421875 24.609375 -1.421875 
Q 20.21875 -1.421875 15.453125 -0.5625 
Q 10.6875 0.296875 5.421875 2 
L 5.421875 11.28125 
Q 10.40625 8.6875 15.234375 7.390625 
Q 20.0625 6.109375 24.8125 6.109375 
Q 31.15625 6.109375 34.5625 8.28125 
Q 37.984375 10.453125 37.984375 14.40625 
Q 37.984375 18.0625 35.515625 20.015625 
Q 33.0625 21.96875 24.703125 23.78125 
L 21.578125 24.515625 
Q 13.234375 26.265625 9.515625 29.90625 
Q 5.8125 33.546875 5.8125 39.890625 
Q 5.8125 47.609375 11.28125 51.796875 
Q 16.75 56 26.8125 56 
Q 31.78125 56 36.171875 55.265625 
Q 40.578125 54.546875 44.28125 53.078125 
z
" id="DejaVuSans-115"/>
     </defs>
     <g transform="translate(205.662344 335.860562)scale(0.1 -0.1)">
      <use xlink:href="#DejaVuSans-71"/>
      <use x="77.490234" xlink:href="#DejaVuSans-101"/>
      <use x="139.013672" xlink:href="#DejaVuSans-110"/>
      <use x="202.392578" xlink:href="#DejaVuSans-101"/>
      <use x="263.916016" xlink:href="#DejaVuSans-114"/>
      <use x="305.029297" xlink:href="#DejaVuSans-97"/>
      <use x="366.308594" xlink:href="#DejaVuSans-116"/>
      <use x="405.517578" xlink:href="#DejaVuSans-105"/>
      <use x="433.300781" xlink:href="#DejaVuSans-111"/>
      <use x="494.482422" xlink:href="#DejaVuSans-110"/>
      <use x="557.861328" xlink:href="#DejaVuSans-115"/>
     </g>
    </g>
   </g>
   <g id="matplotlib.axis_2">
    <g id="ytick_1">
     <g id="line2d_19">
      <path clip-path="url(#p5378240b9e)" d="M 57.6 276.767868 
L 414.72 276.767868 
" style="fill:none;stroke:#b0b0b0;stroke-linecap:square;stroke-width:0.8;"/>
     </g>
     <g id="line2d_20">
      <defs>
       <path d="M 0 0 
L -3.5 0 
" id="mf4d53e0cc0" style="stroke:#000000;stroke-width:0.8;"/>
      </defs>
      <g>
       <use style="stroke:#000000;stroke-width:0.8;" x="57.6" xlink:href="#mf4d53e0cc0" y="276.767868"/>
      </g>
     </g>
     <g id="text_11">
      <!-- 4 -->
      <g transform="translate(44.2375 280.567086)scale(0.1 -0.1)">
       <use xlink:href="#DejaVuSans-52"/>
      </g>
     </g>
    </g>
    <g id="ytick_2">
     <g id="line2d_21">
      <path clip-path="url(#p5378240b9e)" d="M 57.6 238.217512 
L 414.72 238.217512 
" style="fill:none;stroke:#b0b0b0;stroke-linecap:square;stroke-width:0.8;"/>
     </g>
     <g id="line2d_22">
      <g>
       <use style="stroke:#000000;stroke-width:0.8;" x="57.6" xlink:href="#mf4d53e0cc0" y="238.217512"/>
      </g>
     </g>
     <g id="text_12">
      <!-- 6 -->
      <g transform="translate(44.2375 242.016731)scale(0.1 -0.1)">
       <use xlink:href="#DejaVuSans-54"/>
      </g>
     </g>
    </g>
    <g id="ytick_3">
     <g id="line2d_23">
      <path clip-path="url(#p5378240b9e)" d="M 57.6 199.667156 
L 414.72 199.667156 
" style="fill:none;stroke:#b0b0b0;stroke-linecap:square;stroke-width:0.8;"/>
     </g>
     <g id="line2d_24">
      <g>
       <use style="stroke:#000000;stroke-width:0.8;" x="57.6" xlink:href="#mf4d53e0cc0" y="199.667156"/>
      </g>
     </g>
     <g id="text_13">
      <!-- 8 -->
      <g transform="translate(44.2375 203.466375)scale(0.1 -0.1)">
       <use xlink:href="#DejaVuSans-56"/>
      </g>
     </g>
    </g>
    <g id="ytick_4">
     <g id="line2d_25">
      <path clip-path="url(#p5378240b9e)" d="M 57.6 161.116801 
L 414.72 161.116801 
" style="fill:none;stroke:#b0b0b0;stroke-linecap:square;stroke-width:0.8;"/>
     </g>
     <g id="line2d_26">
      <g>
       <use style="stroke:#000000;stroke-width:0.8;" x="57.6" xlink:href="#mf4d53e0cc0" y="161.116801"/>
      </g>
     </g>
     <g id="text_14">
      <!-- 10 -->
      <g transform="translate(37.875 164.91602)scale(0.1 -0.1)">
       <use xlink:href="#DejaVuSans-49"/>
       <use x="63.623047" xlink:href="#DejaVuSans-48"/>
      </g>
     </g>
    </g>
    <g id="ytick_5">
     <g id="line2d_27">
      <path clip-path="url(#p5378240b9e)" d="M 57.6 122.566445 
L 414.72 122.566445 
" style="fill:none;stroke:#b0b0b0;stroke-linecap:square;stroke-width:0.8;"/>
     </g>
     <g id="line2d_28">
      <g>
       <use style="stroke:#000000;stroke-width:0.8;" x="57.6" xlink:href="#mf4d53e0cc0" y="122.566445"/>
      </g>
     </g>
     <g id="text_15">
      <!-- 12 -->
      <g transform="translate(37.875 126.365664)scale(0.1 -0.1)">
       <use xlink:href="#DejaVuSans-49"/>
       <use x="63.623047" xlink:href="#DejaVuSans-50"/>
      </g>
     </g>
    </g>
    <g id="ytick_6">
     <g id="line2d_29">
      <path clip-path="url(#p5378240b9e)" d="M 57.6 84.01609 
L 414.72 84.01609 
" style="fill:none;stroke:#b0b0b0;stroke-linecap:square;stroke-width:0.8;"/>
     </g>
     <g id="line2d_30">
      <g>
       <use style="stroke:#000000;stroke-width:0.8;" x="57.6" xlink:href="#mf4d53e0cc0" y="84.01609"/>
      </g>
     </g>
     <g id="text_16">
      <!-- 14 -->
      <g transform="translate(37.875 87.815309)scale(0.1 -0.1)">
       <use xlink:href="#DejaVuSans-49"/>
       <use x="63.623047" xlink:href="#DejaVuSans-52"/>
      </g>
     </g>
    </g>
    <g id="ytick_7">
     <g id="line2d_31">
      <path clip-path="url(#p5378240b9e)" d="M 57.6 45.465734 
L 414.72 45.465734 
" style="fill:none;stroke:#b0b0b0;stroke-linecap:square;stroke-width:0.8;"/>
     </g>
     <g id="line2d_32">
      <g>
       <use style="stroke:#000000;stroke-width:0.8;" x="57.6" xlink:href="#mf4d53e0cc0" y="45.465734"/>
      </g>
     </g>
     <g id="text_17">
      <!-- 16 -->
      <g transform="translate(37.875 49.264953)scale(0.1 -0.1)">
       <use xlink:href="#DejaVuSans-49"/>
       <use x="63.623047" xlink:href="#DejaVuSans-54"/>
      </g>
     </g>
    </g>
    <g id="text_18">
     <!-- Fitness -->
     <defs>
      <path d="M 9.8125 72.90625 
L 51.703125 72.90625 
L 51.703125 64.59375 
L 19.671875 64.59375 
L 19.671875 43.109375 
L 48.578125 43.109375 
L 48.578125 34.8125 
L 19.671875 34.8125 
L 19.671875 0 
L 9.8125 0 
z
" id="DejaVuSans-70"/>
     </defs>
     <g transform="translate(31.795312 192.202219)rotate(-90)scale(0.1 -0.1)">
      <use xlink:href="#DejaVuSans-70"/>
      <use x="57.410156" xlink:href="#DejaVuSans-105"/>
      <use x="85.193359" xlink:href="#DejaVuSans-116"/>
      <use x="124.402344" xlink:href="#DejaVuSans-110"/>
      <use x="187.78125" xlink:href="#DejaVuSans-101"/>
      <use x="249.304688" xlink:href="#DejaVuSans-115"/>
      <use x="301.404297" xlink:href="#DejaVuSans-115"/>
     </g>
    </g>
   </g>
   <g id="line2d_33">
    <path clip-path="url(#p5378240b9e)" d="M 73.832727 275.577035 
L 78.04902 272.194252 
L 82.265313 268.163954 
L 86.481606 264.868785 
L 90.697898 264.289549 
L 94.914191 261.227865 
L 99.130484 258.607648 
L 103.346777 256.900408 
L 107.56307 256.791762 
L 111.779362 254.980649 
L 115.995655 255.082924 
L 120.211948 252.547637 
L 124.428241 254.676172 
L 128.644534 251.88264 
L 132.860826 253.57275 
L 137.077119 240.457591 
L 141.293412 243.018771 
L 145.509705 241.650936 
L 149.725998 245.263447 
L 153.94229 254.374748 
L 158.158583 243.780411 
L 162.374876 246.194888 
L 166.591169 244.628856 
L 170.807462 243.413566 
L 175.023754 225.97201 
L 179.240047 237.61668 
L 183.45634 234.67308 
L 187.672633 241.104291 
L 191.888926 241.332276 
L 196.105218 239.641741 
L 200.321511 232.373228 
L 204.537804 231.855873 
L 208.754097 235.641245 
L 212.97039 236.689441 
L 217.186682 227.95639 
L 221.402975 232.006774 
L 225.619268 227.245067 
L 229.835561 228.926882 
L 234.051854 241.035216 
L 238.268146 236.092216 
L 242.484439 234.451127 
L 246.700732 234.922986 
L 250.917025 238.184632 
L 255.133318 239.910119 
L 259.34961 243.311639 
L 263.565903 252.056095 
L 267.782196 242.10221 
L 271.998489 243.391094 
L 276.214782 243.199827 
L 280.431074 236.035915 
L 284.647367 238.597543 
L 288.86366 238.163758 
L 293.079953 239.423484 
L 297.296246 235.563299 
L 301.512538 243.964299 
L 305.728831 236.929097 
L 309.945124 234.697737 
L 314.161417 239.790854 
L 318.37771 236.36358 
L 322.594002 241.161502 
L 326.810295 235.754053 
L 331.026588 237.378082 
L 335.242881 240.003465 
L 339.459174 233.276176 
L 343.675466 233.912507 
L 347.891759 235.02243 
L 352.108052 232.852493 
L 356.324345 238.20434 
L 360.540638 232.153567 
L 364.75693 236.178646 
L 368.973223 234.403803 
L 373.189516 236.242608 
L 377.405809 237.922242 
L 381.622102 235.700892 
L 385.838394 235.09612 
L 390.054687 234.227309 
L 394.27098 236.367622 
L 398.487273 238.24616 
" style="fill:none;stroke:#0000ff;stroke-linecap:square;stroke-width:1.5;"/>
   </g>
   <g id="line2d_34">
    <path clip-path="url(#p5378240b9e)" d="M 73.832727 294.408328 
L 78.04902 294.398356 
L 82.265313 291.956059 
L 86.481606 291.545378 
L 90.697898 292.956712 
L 94.914191 292.970072 
L 99.130484 292.510269 
L 103.346777 291.2693 
L 107.56307 292.516499 
L 111.779362 291.090359 
L 115.995655 292.829483 
L 120.211948 292.747445 
L 124.428241 291.398479 
L 128.644534 290.608912 
L 132.860826 295.072281 
L 137.077119 285.777748 
L 141.293412 287.826658 
L 145.509705 287.920945 
L 149.725998 289.792375 
L 153.94229 295.488 
L 158.158583 288.569769 
L 162.374876 289.978597 
L 166.591169 289.323283 
L 170.807462 288.919883 
L 175.023754 272.649626 
L 179.240047 284.292854 
L 183.45634 281.02002 
L 187.672633 286.238793 
L 191.888926 287.348169 
L 196.105218 285.486298 
L 200.321511 278.818767 
L 204.537804 278.340812 
L 208.754097 283.345274 
L 212.97039 282.993621 
L 217.186682 275.208256 
L 221.402975 279.420785 
L 225.619268 274.471715 
L 229.835561 275.939212 
L 234.051854 287.008342 
L 238.268146 282.321323 
L 242.484439 282.650653 
L 246.700732 282.305402 
L 250.917025 286.246317 
L 255.133318 286.178188 
L 259.34961 288.436729 
L 263.565903 293.498104 
L 267.782196 288.718766 
L 271.998489 288.429766 
L 276.214782 287.750734 
L 280.431074 283.023628 
L 284.647367 284.192515 
L 288.86366 284.377562 
L 293.079953 285.83761 
L 297.296246 282.186947 
L 301.512538 289.051934 
L 305.728831 283.760444 
L 309.945124 281.556083 
L 314.161417 286.124852 
L 318.37771 284.23921 
L 322.594002 288.093188 
L 326.810295 282.428886 
L 331.026588 284.569603 
L 335.242881 286.690021 
L 339.459174 279.737063 
L 343.675466 281.329607 
L 347.891759 282.299523 
L 352.108052 280.479968 
L 356.324345 284.850562 
L 360.540638 279.552294 
L 364.75693 284.118596 
L 368.973223 281.999858 
L 373.189516 283.730472 
L 377.405809 285.061037 
L 381.622102 283.561315 
L 385.838394 282.211696 
L 390.054687 282.389691 
L 394.27098 284.239087 
L 398.487273 286.04957 
" style="fill:none;stroke:#008000;stroke-dasharray:9.6,2.4,1.5,2.4;stroke-dashoffset:0;stroke-width:1.5;"/>
   </g>
   <g id="line2d_35">
    <path clip-path="url(#p5378240b9e)" d="M 73.832727 256.745741 
L 78.04902 249.990147 
L 82.265313 244.371848 
L 86.481606 238.192192 
L 90.697898 235.622386 
L 94.914191 229.485659 
L 99.130484 224.705026 
L 103.346777 222.531515 
L 107.56307 221.067024 
L 111.779362 218.870939 
L 115.995655 217.336364 
L 120.211948 212.347828 
L 124.428241 217.953864 
L 128.644534 213.156367 
L 132.860826 212.073219 
L 137.077119 195.137434 
L 141.293412 198.210884 
L 145.509705 195.380926 
L 149.725998 200.734519 
L 153.94229 213.261496 
L 158.158583 198.991053 
L 162.374876 202.411179 
L 166.591169 199.934429 
L 170.807462 197.907249 
L 175.023754 179.294395 
L 179.240047 190.940506 
L 183.45634 188.32614 
L 187.672633 195.969789 
L 191.888926 195.316384 
L 196.105218 193.797183 
L 200.321511 185.927689 
L 204.537804 185.370933 
L 208.754097 187.937216 
L 212.97039 190.38526 
L 217.186682 180.704524 
L 221.402975 184.592762 
L 225.619268 180.018418 
L 229.835561 181.914552 
L 234.051854 195.06209 
L 238.268146 189.863108 
L 242.484439 186.251601 
L 246.700732 187.540569 
L 250.917025 190.122947 
L 255.133318 193.642049 
L 259.34961 198.186549 
L 263.565903 210.614085 
L 267.782196 195.485655 
L 271.998489 198.352422 
L 276.214782 198.648919 
L 280.431074 189.048201 
L 284.647367 193.00257 
L 288.86366 191.949954 
L 293.079953 193.009359 
L 297.296246 188.939651 
L 301.512538 198.876665 
L 305.728831 190.09775 
L 309.945124 187.839391 
L 314.161417 193.456856 
L 318.37771 188.487951 
L 322.594002 194.229815 
L 326.810295 189.07922 
L 331.026588 190.18656 
L 335.242881 193.316908 
L 339.459174 186.81529 
L 343.675466 186.495406 
L 347.891759 187.745337 
L 352.108052 185.225018 
L 356.324345 191.558119 
L 360.540638 184.75484 
L 364.75693 188.238696 
L 368.973223 186.807748 
L 373.189516 188.754744 
L 377.405809 190.783447 
L 381.622102 187.840468 
L 385.838394 187.980543 
L 390.054687 186.064927 
L 394.27098 188.496157 
L 398.487273 190.44275 
" style="fill:none;stroke:#008000;stroke-dasharray:9.6,2.4,1.5,2.4;stroke-dashoffset:0;stroke-width:1.5;"/>
   </g>
   <g id="line2d_36">
    <path clip-path="url(#p5378240b9e)" d="M 73.832727 200.266444 
L 78.04902 183.234588 
L 82.265313 183.234588 
L 86.481606 183.234588 
L 90.697898 182.000796 
L 94.914191 182.000796 
L 99.130484 182.000796 
L 103.346777 180.869338 
L 107.56307 180.869338 
L 111.779362 180.869338 
L 115.995655 180.750518 
L 120.211948 180.490782 
L 124.428241 180.490782 
L 128.644534 180.401515 
L 132.860826 180.401515 
L 137.077119 180.397471 
L 141.293412 180.393556 
L 145.509705 180.393556 
L 149.725998 180.393556 
L 153.94229 180.393556 
L 158.158583 180.392282 
L 162.374876 180.392084 
L 166.591169 180.392079 
L 170.807462 180.392074 
L 175.023754 180.392003 
L 179.240047 180.391985 
L 183.45634 180.391985 
L 187.672633 180.391982 
L 191.888926 180.391981 
L 196.105218 180.391981 
L 200.321511 180.39198 
L 204.537804 180.391979 
L 208.754097 180.391979 
L 212.97039 180.391979 
L 217.186682 180.391979 
L 221.402975 180.391979 
L 225.619268 180.391979 
L 229.835561 180.391979 
L 234.051854 180.391979 
L 238.268146 180.391979 
L 242.484439 180.391979 
L 246.700732 180.391979 
L 250.917025 180.391979 
L 255.133318 180.391979 
L 259.34961 180.391979 
L 263.565903 180.391979 
L 267.782196 180.391979 
L 271.998489 180.391979 
L 276.214782 180.391979 
L 280.431074 180.391979 
L 284.647367 180.391979 
L 288.86366 180.391979 
L 293.079953 180.391979 
L 297.296246 180.391979 
L 301.512538 180.391979 
L 305.728831 180.391979 
L 309.945124 180.391979 
L 314.161417 180.391979 
L 318.37771 180.391979 
L 322.594002 180.391979 
L 326.810295 180.391979 
L 331.026588 180.391979 
L 335.242881 180.391979 
L 339.459174 180.391979 
L 343.675466 180.391979 
L 347.891759 180.391979 
L 352.108052 180.391979 
L 356.324345 180.391979 
L 360.540638 180.391979 
L 364.75693 180.391979 
L 368.973223 180.391979 
L 373.189516 180.391979 
L 377.405809 180.391979 
L 381.622102 180.391979 
L 385.838394 163.29497 
L 390.054687 150.093388 
L 394.27098 150.093388 
L 398.487273 53.568 
" style="fill:none;stroke:#ff0000;stroke-linecap:square;stroke-width:1.5;"/>
   </g>
   <g id="patch_3">
    <path d="M 57.6 307.584 
L 57.6 41.472 
" style="fill:none;stroke:#000000;stroke-linecap:square;stroke-linejoin:miter;stroke-width:0.8;"/>
   </g>
   <g id="patch_4">
    <path d="M 414.72 307.584 
L 414.72 41.472 
" style="fill:none;stroke:#000000;stroke-linecap:square;stroke-linejoin:miter;stroke-width:0.8;"/>
   </g>
   <g id="patch_5">
    <path d="M 57.6 307.584 
L 414.72 307.584 
" style="fill:none;stroke:#000000;stroke-linecap:square;stroke-linejoin:miter;stroke-width:0.8;"/>
   </g>
   <g id="patch_6">
    <path d="M 57.6 41.472 
L 414.72 41.472 
" style="fill:none;stroke:#000000;stroke-linecap:square;stroke-linejoin:miter;stroke-width:0.8;"/>
   </g>
   <g id="text_19">
    <!-- Population's average and best fitness -->
    <defs>
     <path d="M 19.671875 64.796875 
L 19.671875 37.40625 
L 32.078125 37.40625 
Q 38.96875 37.40625 42.71875 40.96875 
Q 46.484375 44.53125 46.484375 51.125 
Q 46.484375 57.671875 42.71875 61.234375 
Q 38.96875 64.796875 32.078125 64.796875 
z
M 9.8125 72.90625 
L 32.078125 72.90625 
Q 44.34375 72.90625 50.609375 67.359375 
Q 56.890625 61.8125 56.890625 51.125 
Q 56.890625 40.328125 50.609375 34.8125 
Q 44.34375 29.296875 32.078125 29.296875 
L 19.671875 29.296875 
L 19.671875 0 
L 9.8125 0 
z
" id="DejaVuSans-80"/>
     <path d="M 18.109375 8.203125 
L 18.109375 -20.796875 
L 9.078125 -20.796875 
L 9.078125 54.6875 
L 18.109375 54.6875 
L 18.109375 46.390625 
Q 20.953125 51.265625 25.265625 53.625 
Q 29.59375 56 35.59375 56 
Q 45.5625 56 51.78125 48.09375 
Q 58.015625 40.1875 58.015625 27.296875 
Q 58.015625 14.40625 51.78125 6.484375 
Q 45.5625 -1.421875 35.59375 -1.421875 
Q 29.59375 -1.421875 25.265625 0.953125 
Q 20.953125 3.328125 18.109375 8.203125 
z
M 48.6875 27.296875 
Q 48.6875 37.203125 44.609375 42.84375 
Q 40.53125 48.484375 33.40625 48.484375 
Q 26.265625 48.484375 22.1875 42.84375 
Q 18.109375 37.203125 18.109375 27.296875 
Q 18.109375 17.390625 22.1875 11.75 
Q 26.265625 6.109375 33.40625 6.109375 
Q 40.53125 6.109375 44.609375 11.75 
Q 48.6875 17.390625 48.6875 27.296875 
z
" id="DejaVuSans-112"/>
     <path d="M 8.5 21.578125 
L 8.5 54.6875 
L 17.484375 54.6875 
L 17.484375 21.921875 
Q 17.484375 14.15625 20.5 10.265625 
Q 23.53125 6.390625 29.59375 6.390625 
Q 36.859375 6.390625 41.078125 11.03125 
Q 45.3125 15.671875 45.3125 23.6875 
L 45.3125 54.6875 
L 54.296875 54.6875 
L 54.296875 0 
L 45.3125 0 
L 45.3125 8.40625 
Q 42.046875 3.421875 37.71875 1 
Q 33.40625 -1.421875 27.6875 -1.421875 
Q 18.265625 -1.421875 13.375 4.4375 
Q 8.5 10.296875 8.5 21.578125 
z
M 31.109375 56 
z
" id="DejaVuSans-117"/>
     <path d="M 9.421875 75.984375 
L 18.40625 75.984375 
L 18.40625 0 
L 9.421875 0 
z
" id="DejaVuSans-108"/>
     <path d="M 17.921875 72.90625 
L 17.921875 45.796875 
L 9.625 45.796875 
L 9.625 72.90625 
z
" id="DejaVuSans-39"/>
     <path id="DejaVuSans-32"/>
     <path d="M 2.984375 54.6875 
L 12.5 54.6875 
L 29.59375 8.796875 
L 46.6875 54.6875 
L 56.203125 54.6875 
L 35.6875 0 
L 23.484375 0 
z
" id="DejaVuSans-118"/>
     <path d="M 45.40625 27.984375 
Q 45.40625 37.75 41.375 43.109375 
Q 37.359375 48.484375 30.078125 48.484375 
Q 22.859375 48.484375 18.828125 43.109375 
Q 14.796875 37.75 14.796875 27.984375 
Q 14.796875 18.265625 18.828125 12.890625 
Q 22.859375 7.515625 30.078125 7.515625 
Q 37.359375 7.515625 41.375 12.890625 
Q 45.40625 18.265625 45.40625 27.984375 
z
M 54.390625 6.78125 
Q 54.390625 -7.171875 48.1875 -13.984375 
Q 42 -20.796875 29.203125 -20.796875 
Q 24.46875 -20.796875 20.265625 -20.09375 
Q 16.0625 -19.390625 12.109375 -17.921875 
L 12.109375 -9.1875 
Q 16.0625 -11.328125 19.921875 -12.34375 
Q 23.78125 -13.375 27.78125 -13.375 
Q 36.625 -13.375 41.015625 -8.765625 
Q 45.40625 -4.15625 45.40625 5.171875 
L 45.40625 9.625 
Q 42.625 4.78125 38.28125 2.390625 
Q 33.9375 0 27.875 0 
Q 17.828125 0 11.671875 7.65625 
Q 5.515625 15.328125 5.515625 27.984375 
Q 5.515625 40.671875 11.671875 48.328125 
Q 17.828125 56 27.875 56 
Q 33.9375 56 38.28125 53.609375 
Q 42.625 51.21875 45.40625 46.390625 
L 45.40625 54.6875 
L 54.390625 54.6875 
z
" id="DejaVuSans-103"/>
     <path d="M 45.40625 46.390625 
L 45.40625 75.984375 
L 54.390625 75.984375 
L 54.390625 0 
L 45.40625 0 
L 45.40625 8.203125 
Q 42.578125 3.328125 38.25 0.953125 
Q 33.9375 -1.421875 27.875 -1.421875 
Q 17.96875 -1.421875 11.734375 6.484375 
Q 5.515625 14.40625 5.515625 27.296875 
Q 5.515625 40.1875 11.734375 48.09375 
Q 17.96875 56 27.875 56 
Q 33.9375 56 38.25 53.625 
Q 42.578125 51.265625 45.40625 46.390625 
z
M 14.796875 27.296875 
Q 14.796875 17.390625 18.875 11.75 
Q 22.953125 6.109375 30.078125 6.109375 
Q 37.203125 6.109375 41.296875 11.75 
Q 45.40625 17.390625 45.40625 27.296875 
Q 45.40625 37.203125 41.296875 42.84375 
Q 37.203125 48.484375 30.078125 48.484375 
Q 22.953125 48.484375 18.875 42.84375 
Q 14.796875 37.203125 14.796875 27.296875 
z
" id="DejaVuSans-100"/>
     <path d="M 48.6875 27.296875 
Q 48.6875 37.203125 44.609375 42.84375 
Q 40.53125 48.484375 33.40625 48.484375 
Q 26.265625 48.484375 22.1875 42.84375 
Q 18.109375 37.203125 18.109375 27.296875 
Q 18.109375 17.390625 22.1875 11.75 
Q 26.265625 6.109375 33.40625 6.109375 
Q 40.53125 6.109375 44.609375 11.75 
Q 48.6875 17.390625 48.6875 27.296875 
z
M 18.109375 46.390625 
Q 20.953125 51.265625 25.265625 53.625 
Q 29.59375 56 35.59375 56 
Q 45.5625 56 51.78125 48.09375 
Q 58.015625 40.1875 58.015625 27.296875 
Q 58.015625 14.40625 51.78125 6.484375 
Q 45.5625 -1.421875 35.59375 -1.421875 
Q 29.59375 -1.421875 25.265625 0.953125 
Q 20.953125 3.328125 18.109375 8.203125 
L 18.109375 0 
L 9.078125 0 
L 9.078125 75.984375 
L 18.109375 75.984375 
z
" id="DejaVuSans-98"/>
     <path d="M 37.109375 75.984375 
L 37.109375 68.5 
L 28.515625 68.5 
Q 23.6875 68.5 21.796875 66.546875 
Q 19.921875 64.59375 19.921875 59.515625 
L 19.921875 54.6875 
L 34.71875 54.6875 
L 34.71875 47.703125 
L 19.921875 47.703125 
L 19.921875 0 
L 10.890625 0 
L 10.890625 47.703125 
L 2.296875 47.703125 
L 2.296875 54.6875 
L 10.890625 54.6875 
L 10.890625 58.5 
Q 10.890625 67.625 15.140625 71.796875 
Q 19.390625 75.984375 28.609375 75.984375 
z
" id="DejaVuSans-102"/>
    </defs>
    <g transform="translate(123.315 35.472)scale(0.12 -0.12)">
     <use xlink:href="#DejaVuSans-80"/>
     <use x="60.255859" xlink:href="#DejaVuSans-111"/>
     <use x="121.4375" xlink:href="#DejaVuSans-112"/>
     <use x="184.914062" xlink:href="#DejaVuSans-117"/>
     <use x="248.292969" xlink:href="#DejaVuSans-108"/>
     <use x="276.076172" xlink:href="#DejaVuSans-97"/>
     <use x="337.355469" xlink:href="#DejaVuSans-116"/>
     <use x="376.564453" xlink:href="#DejaVuSans-105"/>
     <use x="404.347656" xlink:href="#DejaVuSans-111"/>
     <use x="465.529297" xlink:href="#DejaVuSans-110"/>
     <use x="528.908203" xlink:href="#DejaVuSans-39"/>
     <use x="556.398438" xlink:href="#DejaVuSans-115"/>
     <use x="608.498047" xlink:href="#DejaVuSans-32"/>
     <use x="640.285156" xlink:href="#DejaVuSans-97"/>
     <use x="701.564453" xlink:href="#DejaVuSans-118"/>
     <use x="760.744141" xlink:href="#DejaVuSans-101"/>
     <use x="822.267578" xlink:href="#DejaVuSans-114"/>
     <use x="863.380859" xlink:href="#DejaVuSans-97"/>
     <use x="924.660156" xlink:href="#DejaVuSans-103"/>
     <use x="988.136719" xlink:href="#DejaVuSans-101"/>
     <use x="1049.660156" xlink:href="#DejaVuSans-32"/>
     <use x="1081.447266" xlink:href="#DejaVuSans-97"/>
     <use x="1142.726562" xlink:href="#DejaVuSans-110"/>
     <use x="1206.105469" xlink:href="#DejaVuSans-100"/>
     <use x="1269.582031" xlink:href="#DejaVuSans-32"/>
     <use x="1301.369141" xlink:href="#DejaVuSans-98"/>
     <use x="1364.845703" xlink:href="#DejaVuSans-101"/>
     <use x="1426.369141" xlink:href="#DejaVuSans-115"/>
     <use x="1478.46875" xlink:href="#DejaVuSans-116"/>
     <use x="1517.677734" xlink:href="#DejaVuSans-32"/>
     <use x="1549.464844" xlink:href="#DejaVuSans-102"/>
     <use x="1584.669922" xlink:href="#DejaVuSans-105"/>
     <use x="1612.453125" xlink:href="#DejaVuSans-116"/>
     <use x="1651.662109" xlink:href="#DejaVuSans-110"/>
     <use x="1715.041016" xlink:href="#DejaVuSans-101"/>
     <use x="1776.564453" xlink:href="#DejaVuSans-115"/>
     <use x="1828.664062" xlink:href="#DejaVuSans-115"/>
    </g>
   </g>
   <g id="legend_1">
    <g id="patch_7">
     <path d="M 64.6 108.1845 
L 137.540625 108.1845 
Q 139.540625 108.1845 139.540625 106.1845 
L 139.540625 48.472 
Q 139.540625 46.472 137.540625 46.472 
L 64.6 46.472 
Q 62.6 46.472 62.6 48.472 
L 62.6 106.1845 
Q 62.6 108.1845 64.6 108.1845 
z
" style="fill:#ffffff;opacity:0.8;stroke:#cccccc;stroke-linejoin:miter;"/>
    </g>
    <g id="line2d_37">
     <path d="M 66.6 54.570438 
L 86.6 54.570438 
" style="fill:none;stroke:#0000ff;stroke-linecap:square;stroke-width:1.5;"/>
    </g>
    <g id="line2d_38"/>
    <g id="text_20">
     <!-- average -->
     <g transform="translate(94.6 58.070438)scale(0.1 -0.1)">
      <use xlink:href="#DejaVuSans-97"/>
      <use x="61.279297" xlink:href="#DejaVuSans-118"/>
      <use x="120.458984" xlink:href="#DejaVuSans-101"/>
      <use x="181.982422" xlink:href="#DejaVuSans-114"/>
      <use x="223.095703" xlink:href="#DejaVuSans-97"/>
      <use x="284.375" xlink:href="#DejaVuSans-103"/>
      <use x="347.851562" xlink:href="#DejaVuSans-101"/>
     </g>
    </g>
    <g id="line2d_39">
     <path d="M 66.6 69.248563 
L 86.6 69.248563 
" style="fill:none;stroke:#008000;stroke-dasharray:9.6,2.4,1.5,2.4;stroke-dashoffset:0;stroke-width:1.5;"/>
    </g>
    <g id="line2d_40"/>
    <g id="text_21">
     <!-- -1 sd -->
     <defs>
      <path d="M 4.890625 31.390625 
L 31.203125 31.390625 
L 31.203125 23.390625 
L 4.890625 23.390625 
z
" id="DejaVuSans-45"/>
     </defs>
     <g transform="translate(94.6 72.748563)scale(0.1 -0.1)">
      <use xlink:href="#DejaVuSans-45"/>
      <use x="36.083984" xlink:href="#DejaVuSans-49"/>
      <use x="99.707031" xlink:href="#DejaVuSans-32"/>
      <use x="131.494141" xlink:href="#DejaVuSans-115"/>
      <use x="183.59375" xlink:href="#DejaVuSans-100"/>
     </g>
    </g>
    <g id="line2d_41">
     <path d="M 66.6 83.926688 
L 86.6 83.926688 
" style="fill:none;stroke:#008000;stroke-dasharray:9.6,2.4,1.5,2.4;stroke-dashoffset:0;stroke-width:1.5;"/>
    </g>
    <g id="line2d_42"/>
    <g id="text_22">
     <!-- +1 sd -->
     <defs>
      <path d="M 46 62.703125 
L 46 35.5 
L 73.1875 35.5 
L 73.1875 27.203125 
L 46 27.203125 
L 46 0 
L 37.796875 0 
L 37.796875 27.203125 
L 10.59375 27.203125 
L 10.59375 35.5 
L 37.796875 35.5 
L 37.796875 62.703125 
z
" id="DejaVuSans-43"/>
     </defs>
     <g transform="translate(94.6 87.426688)scale(0.1 -0.1)">
      <use xlink:href="#DejaVuSans-43"/>
      <use x="83.789062" xlink:href="#DejaVuSans-49"/>
      <use x="147.412109" xlink:href="#DejaVuSans-32"/>
      <use x="179.199219" xlink:href="#DejaVuSans-115"/>
      <use x="231.298828" xlink:href="#DejaVuSans-100"/>
     </g>
    </g>
    <g id="line2d_43">
     <path d="M 66.6 98.604813 
L 86.6 98.604813 
" style="fill:none;stroke:#ff0000;stroke-linecap:square;stroke-width:1.5;"/>
    </g>
    <g id="line2d_44"/>
    <g id="text_23">
     <!-- best -->
     <g transform="translate(94.6 102.104813)scale(0.1 -0.1)">
      <use xlink:href="#DejaVuSans-98"/>
      <use x="63.476562" xlink:href="#DejaVuSans-101"/>
      <use x="125" xlink:href="#DejaVuSans-115"/>
      <use x="177.099609" xlink:href="#DejaVuSans-116"/>
     </g>
    </g>
   </g>
  </g>
 </g>
 <defs>
  <clipPath id="p5378240b9e">
   <rect height="266.112" width="357.12" x="57.6" y="41.472"/>
  </clipPath>
 </defs>
</svg>
