<?xml version="1.0" encoding="UTF-8" standalone="no"?>
<!DOCTYPE svg PUBLIC "-//W3C//DTD SVG 1.1//EN"
 "http://www.w3.org/Graphics/SVG/1.1/DTD/svg11.dtd">
<!-- Generated by graphviz version 2.40.1 (20161225.0304)
 -->
<!-- Title: %3 Pages: 1 -->
<svg width="151pt" height="308pt"
 viewBox="0.00 0.00 151.19 307.95" xmlns="http://www.w3.org/2000/svg" xmlns:xlink="http://www.w3.org/1999/xlink">
<g id="graph0" class="graph" transform="scale(1 1) rotate(0) translate(4 303.9483)">
<title>%3</title>
<polygon fill="#ffffff" stroke="transparent" points="-4,4 -4,-303.9483 147.1854,-303.9483 147.1854,4 -4,4"/>
<!-- A -->
<g id="node1" class="node">
<title>A</title>
<polygon fill="#d3d3d3" stroke="#000000" points="23,-230.1995 0,-230.1995 0,-212.1995 23,-212.1995 23,-230.1995"/>
<text text-anchor="middle" x="11.5" y="-218.9995" font-family="Times,serif" font-size="9.00" fill="#000000">A</text>
</g>
<!-- A XOR B -->
<g id="node3" class="node">
<title>A XOR B</title>
<ellipse fill="#add8e6" stroke="#000000" cx="64.5" cy="-37.4767" rx="37.4533" ry="37.4533"/>
<text text-anchor="middle" x="64.5" y="-35.2767" font-family="Times,serif" font-size="9.00" fill="#000000">A XOR B</text>
</g>
<!-- A&#45;&gt;A XOR B -->
<g id="edge2" class="edge">
<title>A&#45;&gt;A XOR B</title>
<path fill="none" stroke="#00ff00" stroke-width=".6464" d="M12.2489,-212.1522C14.0026,-193.0766 19.1188,-147.483 30.5,-110.9533 33.7001,-100.6821 38.0259,-89.9846 42.5183,-80.0339"/>
<polygon fill="#00ff00" stroke="#00ff00" stroke-width=".6464" points="45.7885,-81.3026 46.845,-70.7606 39.445,-78.3428 45.7885,-81.3026"/>
</g>
<!-- 1088 -->
<g id="node4" class="node">
<title>1088</title>
<ellipse fill="#ffffff" stroke="#000000" cx="64.5" cy="-135.7021" rx="25" ry="25"/>
<text text-anchor="middle" x="64.5" y="-133.5021" font-family="Times,serif" font-size="9.00" fill="#000000">1088</text>
</g>
<!-- A&#45;&gt;1088 -->
<g id="edge7" class="edge">
<title>A&#45;&gt;1088</title>
<path fill="none" stroke="#ff0000" stroke-width=".518" d="M17.1719,-212.0498C24.0216,-201.0003 35.8865,-181.8603 46.0225,-165.5093"/>
<polygon fill="#ff0000" stroke="#ff0000" stroke-width=".518" points="49.1388,-167.1249 51.4329,-156.7814 43.1892,-163.4367 49.1388,-167.1249"/>
</g>
<!-- B -->
<g id="node2" class="node">
<title>B</title>
<polygon fill="#d3d3d3" stroke="#000000" points="116,-299.9483 93,-299.9483 93,-281.9483 116,-281.9483 116,-299.9483"/>
<text text-anchor="middle" x="104.5" y="-288.7483" font-family="Times,serif" font-size="9.00" fill="#000000">B</text>
</g>
<!-- B&#45;&gt;A XOR B -->
<g id="edge6" class="edge">
<title>B&#45;&gt;A XOR B</title>
<path fill="none" stroke="#ff0000" stroke-width=".4327" d="M114.4321,-281.689C122.6693,-273.278 133.7684,-260.0596 138.5,-245.9483 145.4936,-225.0907 143.2542,-217.9298 138.5,-196.4508 129.0989,-153.977 107.1369,-109.3883 89.5656,-78.2792"/>
<polygon fill="#ff0000" stroke="#ff0000" stroke-width=".4327" points="92.5238,-76.4022 84.5067,-69.4756 86.4545,-79.8899 92.5238,-76.4022"/>
</g>
<!-- B&#45;&gt;1088 -->
<g id="edge5" class="edge">
<title>B&#45;&gt;1088</title>
<path fill="none" stroke="#00ff00" stroke-width=".2489" d="M94.757,-281.6227C86.641,-273.1692 75.6134,-259.9257 70.5,-245.9483 61.688,-221.8607 60.4487,-192.834 61.2732,-170.6123"/>
<polygon fill="#00ff00" stroke="#00ff00" stroke-width=".2489" points="64.7689,-170.783 61.7983,-160.6131 57.7786,-170.4158 64.7689,-170.783"/>
</g>
<!-- 3173 -->
<g id="node5" class="node">
<title>3173</title>
<ellipse fill="#ffffff" stroke="#000000" cx="104.5" cy="-221.1995" rx="25" ry="25"/>
<text text-anchor="middle" x="104.5" y="-218.9995" font-family="Times,serif" font-size="9.00" fill="#000000">3173</text>
</g>
<!-- B&#45;&gt;3173 -->
<g id="edge4" class="edge">
<title>B&#45;&gt;3173</title>
<path fill="none" stroke="#00ff00" stroke-width=".3855" d="M104.5,-281.8298C104.5,-275.2131 104.5,-265.8016 104.5,-256.362"/>
<polygon fill="#00ff00" stroke="#00ff00" stroke-width=".3855" points="108.0001,-256.2388 104.5,-246.2388 101.0001,-256.2388 108.0001,-256.2388"/>
</g>
<!-- 1088&#45;&gt;A XOR B -->
<g id="edge1" class="edge">
<title>1088&#45;&gt;A XOR B</title>
<path fill="none" stroke="#00ff00" stroke-width="2.3236" d="M64.5,-110.9156C64.5,-103.1544 64.5,-94.3088 64.5,-85.5095"/>
<polygon fill="#00ff00" stroke="#00ff00" stroke-width="2.3236" points="68.0001,-85.2687 64.5,-75.2688 61.0001,-85.2688 68.0001,-85.2687"/>
</g>
<!-- 3173&#45;&gt;1088 -->
<g id="edge3" class="edge">
<title>3173&#45;&gt;1088</title>
<path fill="none" stroke="#00ff00" stroke-width=".4101" d="M93.9905,-198.7361C89.5245,-189.1904 84.2367,-177.888 79.3806,-167.5084"/>
<polygon fill="#00ff00" stroke="#00ff00" stroke-width=".4101" points="82.4861,-165.8869 75.0782,-158.3123 76.1457,-168.8533 82.4861,-165.8869"/>
</g>
</g>
</svg>
